<svg width="136" height="192" viewBox="0 0 136 192" fill="none" xmlns="http://www.w3.org/2000/svg">
<g clip-path="url(#clip0_108_172)">
<path opacity="0.18" d="M38.7717 45.795C31.6371 53.2655 29.2654 64.1162 23.209 72.4907C16.1291 82.2857 3.88106 89.0105 1.32589 100.843C-1.47386 113.872 8.99461 125.818 19.5532 133.889C24.6378 137.779 30.0989 141.53 33.4071 147.019C35.4763 150.454 36.5769 154.373 38.2342 158.027C43.4926 169.692 55.1132 178.592 67.8601 179.241C80.6069 179.89 93.6402 171.445 97.0932 159.122C98.7795 153.098 98.358 146.357 101.624 141.043C105.898 134.073 114.873 131.923 121.364 126.967C133.78 117.495 134.465 96.2357 122.687 85.9661C112.36 76.9718 95.0852 75.7934 89.2797 63.3672C87.7061 60 87.2587 56.2131 85.8814 52.7619C78.7147 34.8152 51.0712 32.9136 38.7717 45.795Z" fill="#2158D6"/>
<path d="M61.2275 91.6772C65.0505 91.6772 68.1497 88.5681 68.1497 84.7329C68.1497 80.8976 65.0505 77.7886 61.2275 77.7886C57.4046 77.7886 54.3054 80.8976 54.3054 84.7329C54.3054 88.5681 57.4046 91.6772 61.2275 91.6772Z" fill="#3F3D56"/>
<path d="M84.668 137.275C84.668 137.275 84.2786 145.992 83.7187 147.68C83.1587 149.369 83.8249 150.144 82.0678 150.586C80.3107 151.028 80.9286 141.527 80.9286 141.527L81.5207 137.885L84.668 137.275Z" fill="url(#paint0_linear_108_172)"/>
<path d="M66.2959 139.81L70.3604 163.677H73.8359L74.7048 149.927L75.5061 167.19H79.3195C79.3195 167.19 82.5988 148.281 81.9938 144.801C81.8278 143.653 81.4676 142.543 80.9286 141.517L66.2959 139.81Z" fill="#25233A"/>
<path d="M68.6936 102.599C68.552 100.755 68.6517 98.7957 69.6397 97.2364C70.042 96.6093 70.5709 96.0739 71.1923 95.6646C71.8137 95.2553 72.5137 94.9813 73.2472 94.8603C75.3615 94.5374 77.4307 95.506 79.3616 96.4422C82.1935 97.8369 85.0447 99.2445 87.5355 101.178C90.0263 103.112 92.1664 105.646 93.1093 108.665C93.5331 110.135 93.7593 111.655 93.7819 113.185C93.8588 114.612 93.7604 116.043 93.489 117.446C92.9991 119.595 91.9375 121.571 90.417 123.163C88.8966 124.755 86.9743 125.903 84.8549 126.486C80.0277 127.745 74.528 125.966 70.161 128.371C69.8749 128.571 69.5425 128.693 69.1956 128.726C68.96 128.704 68.7365 128.611 68.5541 128.459C68.3717 128.308 68.2387 128.105 68.1722 127.877C68.0484 127.418 68.0484 126.935 68.1722 126.476C68.4777 125.051 69.1926 123.747 70.2286 122.725C71.5609 121.417 73.3373 120.662 74.7919 119.496C75.0394 119.331 75.2286 119.091 75.3325 118.812C75.5063 118.166 74.8369 117.633 74.2223 117.395C73.6076 117.156 72.8739 116.943 72.6293 116.332C72.4298 115.838 72.6293 115.29 72.7677 114.773C73.3244 112.513 72.1241 110.996 70.8851 109.32C69.4466 107.383 68.8738 104.962 68.6936 102.599Z" fill="#3F3D56"/>
<path d="M79.4098 103.267C79.4098 103.267 81.5788 106.906 84.0729 109.314C86.5669 111.722 90.8148 116.052 88.1084 119.338C86.4825 121.311 84.412 122.868 82.068 123.88L76.5747 118.344V109.304L79.4098 103.267Z" fill="#25233A"/>
<path d="M60.3714 100.035L65.6105 99.6448C65.6105 99.6448 64.1398 109.847 71.2904 113.159C78.441 116.471 82.8402 117.162 83.3261 119.719C83.812 122.276 85.7043 137.033 85.7043 137.033L82.1032 137.876L81.9938 126.463L82.1322 140.859C82.1322 140.859 74.3315 145.249 72.0853 144.384C69.839 143.519 65.1245 142.799 65.2372 135.464C65.3498 128.129 68.7771 122.938 65.057 117.356C61.3368 111.774 60.2749 102.679 60.3714 100.035Z" fill="#2158D6"/>
<path d="M60.3714 100.035L65.6105 99.6448C65.6105 99.6448 64.1398 109.847 71.2904 113.159C78.441 116.471 82.8402 117.162 83.3261 119.719C83.812 122.276 85.7043 137.033 85.7043 137.033L82.1032 137.876L81.9938 126.463L82.1322 140.859C82.1322 140.859 74.3315 145.249 72.0853 144.384C69.8391 143.519 65.1245 142.799 65.2372 135.464C65.3498 128.129 68.7771 122.938 65.057 117.356C61.3368 111.774 60.2749 102.679 60.3714 100.035Z" fill="url(#paint1_linear_108_172)"/>
<path d="M72.8447 113.873C72.8447 113.873 73.0442 116.907 74.988 116.833C76.9317 116.759 76.9349 115.784 76.9349 115.784L78.1707 110.496L72.8447 110.818C72.8447 110.818 73.4497 113.059 72.8447 113.873Z" fill="url(#paint2_linear_108_172)"/>
<path d="M73.0862 112.207C73.0862 112.207 72.8416 113.769 73.8424 114.211C74.8433 114.654 76.4555 114.098 76.8449 113.653L76.935 115.771L77.8361 111.913L73.0862 112.207Z" fill="#222A72"/>
<path d="M71.1778 103.164C71.1778 103.164 70.0547 111.196 74.0902 112.82C78.1257 114.444 79.3614 110.085 79.8827 107.993C80.4041 105.901 78.8948 98.4051 75.6992 99.5705C73.8282 100.217 72.2331 101.484 71.1778 103.164Z" fill="url(#paint3_linear_108_172)"/>
<path d="M61.6943 99.9387C61.6943 99.9387 62.0708 97.13 62.0804 97.0783C62.1138 96.8176 62.0756 96.5527 61.9702 96.3121C61.8647 96.0715 61.6959 95.8643 61.4819 95.7127C61.0957 95.4222 60.6709 94.7442 60.6709 93.1784C60.6709 91.6126 62.325 89.9177 63.0072 90.5957C63.6895 91.2737 63.6927 91.8096 64.3267 91.9097C64.9606 92.0097 64.4715 93.6239 64.3267 94.1695C64.1818 94.7151 65.1054 99.6933 65.1054 99.6933L61.6943 99.9387Z" fill="url(#paint4_linear_108_172)"/>
<path d="M81.9939 126.476L84.0857 137.411L82.1033 137.876L81.9939 126.476Z" fill="url(#paint5_linear_108_172)"/>
<path d="M75.5061 167.19C75.5061 167.19 74.6018 176.132 76.0853 183.399H77.1184L79.3195 167.19H75.5061ZM70.3604 163.677L72.4328 181.914L73.1923 181.592C73.1923 181.592 74.6147 168.678 74.4988 167.432C74.383 166.186 73.8359 163.671 73.8359 163.671L70.3604 163.677Z" fill="#25233A"/>
<path d="M73.1925 181.598C73.1925 181.598 73.6527 182.379 73.6012 182.935C73.5626 183.316 70.9366 186.583 69.0605 188.346C67.0331 190.25 65.0668 189.546 65.0668 189.546C64.3331 189.472 63.9533 187.781 64.5133 187.287C65.7336 186.238 67.105 185.38 68.581 184.743C71.9439 183.316 72.4427 181.902 72.4427 181.902L73.1925 181.598ZM76.0856 183.4C75.8836 184.034 75.8103 184.702 75.87 185.366C75.9987 186.312 80.0535 190.941 80.0535 190.941C80.0535 190.941 83.3746 193.104 84.5395 191.245C85.7045 189.385 81.1026 186.919 80.1886 186.402C79.2747 185.885 77.1186 183.403 77.1186 183.403L76.0856 183.4Z" fill="#25233A"/>
<path d="M52.8541 73.9984C53.2949 75.415 54.1684 76.6569 55.351 77.5484C56.5337 78.44 57.9657 78.9362 59.4447 78.9669C61.2951 78.9669 63.3773 78.2599 65.3081 75.9193C70.4571 69.682 60.9798 58.6892 73.746 45.3979C86.5122 32.1065 87.8412 8.54557 64.9123 6.97979C47.4026 5.79173 40.2391 16.7167 38.2246 23.5544V30.4858L50.5242 35.3285C50.5242 35.3285 55.229 21.0072 62.975 22.8313C70.721 24.6553 63.4255 37.4979 58.5372 42.3793C47.7663 53.1396 50.8814 67.8482 52.8541 73.9984Z" fill="#3F3D56"/>
<path d="M52.8539 65.2204C53.2978 66.6353 54.172 67.8752 55.354 68.7663C56.536 69.6574 57.9665 70.1548 59.4446 70.1889C61.295 70.1889 63.3771 69.3463 65.308 67.0089C70.4569 60.7684 60.3232 54.5666 73.0926 41.2753C85.862 27.9839 87.8508 1.62717 64.9218 0.0710747C41.9929 -1.48502 38.2341 23.5642 38.2341 23.5642L50.5337 28.4068C50.5337 28.4068 55.2289 14.1017 62.9749 15.9193C70.7208 17.7369 63.4254 30.5828 58.5371 35.4674C47.7661 46.218 50.8813 59.0703 52.8539 65.2204Z" fill="#2158D6"/>
<path d="M61.2275 87.1347C65.0505 87.1347 68.1497 84.0256 68.1497 80.1904C68.1497 76.3552 65.0505 73.2461 61.2275 73.2461C57.4046 73.2461 54.3054 76.3552 54.3054 80.1904C54.3054 84.0256 57.4046 87.1347 61.2275 87.1347Z" fill="#2158D6"/>
<path d="M33.6258 83.4349C34.3136 81.9585 33.6781 80.2023 32.2065 79.5123C30.7348 78.8223 28.9842 79.4598 28.2964 80.9362C27.6086 82.4125 28.244 84.1687 29.7157 84.8588C31.1874 85.5488 32.938 84.9113 33.6258 83.4349Z" fill="#3F3D56"/>
<path d="M26.0698 79.122C26.4517 79.6232 26.9805 79.9917 27.5819 80.1759C28.1834 80.36 28.8272 80.3505 29.423 80.1486C30.1632 79.8839 30.8905 79.2931 31.3249 78.076C32.477 74.8476 27.1028 71.8226 30.2855 64.6523C33.4682 57.482 30.588 47.8645 21.204 50.5893C14.0341 52.6619 12.7501 58.0695 12.9335 61.0978L13.9343 63.8613L19.5467 64.0033C19.5467 64.0033 19.3536 57.6014 22.7133 57.2011C26.073 56.8008 25.0142 62.9961 23.7656 65.6595C21.0173 71.5288 24.3899 76.9525 26.0698 79.122Z" fill="#3F3D56"/>
<path d="M24.8018 75.6126C25.1823 76.1147 25.7105 76.484 26.3117 76.6683C26.913 76.8525 27.5567 76.8424 28.1519 76.6393C28.8953 76.3746 29.6032 75.7321 30.0345 74.515C31.1898 71.2866 26.2468 70.2696 29.4262 63.0993C32.6057 55.929 29.5904 45.1106 20.2032 47.8257C10.816 50.5408 12.9496 61.0977 12.9496 61.0977L18.562 61.2365C18.562 61.2365 18.3721 54.8378 21.7286 54.4375C25.085 54.0372 24.0295 60.2325 22.7809 62.8927C20.0294 68.762 23.1188 73.4432 24.8018 75.6126Z" fill="#2158D6"/>
<path d="M31.6008 83.0225C33.0599 82.306 33.6638 80.5386 32.9496 79.0749C32.2355 77.6112 30.4737 77.0054 29.0147 77.7218C27.5556 78.4382 26.9517 80.2056 27.6659 81.6694C28.38 83.1331 30.1418 83.7389 31.6008 83.0225Z" fill="#2158D6"/>
<path d="M18.002 110.492C18.1247 111.063 18.0762 111.656 17.8627 112.199C17.6491 112.741 17.2801 113.208 16.8023 113.54C16.3245 113.872 15.7593 114.055 15.178 114.065C14.5967 114.075 14.0255 113.913 13.5365 113.597C13.0474 113.282 12.6625 112.828 12.4303 112.293C12.1981 111.759 12.1291 111.167 12.2319 110.593C12.3348 110.019 12.6049 109.488 13.0081 109.068C13.4113 108.648 13.9296 108.357 14.4975 108.233C14.8756 108.149 15.2664 108.141 15.6475 108.21C16.0286 108.278 16.3924 108.422 16.7181 108.632C17.0437 108.842 17.3248 109.114 17.5452 109.433C17.7655 109.753 17.9208 110.113 18.002 110.492Z" fill="#3F3D56"/>
<path d="M10.6777 107.435C10.9896 107.983 11.4654 108.419 12.0377 108.681C12.61 108.943 13.2499 109.017 13.8668 108.894C14.636 108.73 15.4373 108.249 16.023 107.093C17.5902 104.032 12.6568 100.336 16.747 93.6466C20.8372 86.9573 19.2443 77.0558 9.58356 78.5118C2.20446 79.6223 0.225334 84.8136 0.0129395 87.8386L0.656559 90.7119L6.19169 91.5965C6.19169 91.5965 6.83531 85.2269 10.2207 85.2721C13.6062 85.3173 11.7429 91.3189 10.1596 93.7918C6.66153 99.2446 9.29715 105.065 10.6777 107.435Z" fill="#3F3D56"/>
<path d="M9.87957 103.79C10.1918 104.338 10.6676 104.773 11.2398 105.035C11.812 105.297 12.4518 105.372 13.0687 105.249C13.8378 105.085 14.623 104.539 15.212 103.393C16.7792 100.333 12.01 98.6861 16.1002 91.9968C20.1904 85.3075 18.6135 74.1824 8.95276 75.6384C-0.707966 77.0944 0.0128877 87.8386 0.0128877 87.8386L5.54801 88.7167C5.54801 88.7167 6.19163 82.3471 9.57707 82.3923C12.9625 82.4375 11.0992 88.4391 9.51593 90.912C6.03395 96.3713 8.49579 101.421 9.87957 103.79Z" fill="#2158D6"/>
<path d="M14.9303 112.186C16.5502 112.065 17.7654 110.649 17.6444 109.024C17.5235 107.399 16.1122 106.18 14.4923 106.301C12.8723 106.423 11.6571 107.838 11.7781 109.464C11.899 111.089 13.3103 112.308 14.9303 112.186Z" fill="#2158D6"/>
<path d="M104.102 88.3163C103.973 88.8851 103.678 89.4026 103.255 89.8033C102.832 90.204 102.3 90.4699 101.727 90.5675C101.154 90.6651 100.564 90.5899 100.033 90.3515C99.5024 90.1131 99.0539 89.7222 98.7445 89.2281C98.4351 88.7341 98.2786 88.1591 98.2949 87.5758C98.3111 86.9926 98.4994 86.4272 98.8358 85.9513C99.1723 85.4753 99.6419 85.1102 100.185 84.9019C100.729 84.6936 101.321 84.6516 101.888 84.7812C102.649 84.9559 103.309 85.4263 103.724 86.0892C104.14 86.752 104.275 87.553 104.102 88.3163Z" fill="#3F3D56"/>
<path d="M98.7827 82.4149C98.8307 83.0428 99.074 83.6397 99.4781 84.1216C99.8823 84.6035 100.427 84.946 101.035 85.1009C101.798 85.2817 102.731 85.1816 103.751 84.3971C106.471 82.3019 103.587 76.8459 110.133 72.5521C116.679 68.2583 119.465 58.6215 110.104 55.7966C102.96 53.6368 98.9565 57.4819 97.4761 60.1259L96.8325 62.9928L101.473 66.1631C101.473 66.1631 104.772 60.6748 107.809 62.1727C110.847 63.6707 106.609 68.2906 104.122 69.8499C98.6411 73.2849 98.551 79.6772 98.7827 82.4149Z" fill="#3F3D56"/>
<path d="M99.6131 78.7765C99.6607 79.4046 99.9037 80.0017 100.308 80.4837C100.712 80.9657 101.257 81.3081 101.866 81.4626C102.632 81.6466 103.578 81.4884 104.598 80.7039C107.317 78.6086 103.706 75.0735 110.255 70.7797C116.804 66.486 120.112 55.7612 110.78 52.9266C101.447 50.0921 97.4988 60.126 97.4988 60.126L102.139 63.2963C102.139 63.2963 105.438 57.808 108.476 59.3028C111.514 60.7975 107.275 65.4367 104.791 66.9831C99.2945 70.4182 99.3717 76.0421 99.6131 78.7765Z" fill="#2158D6"/>
<path d="M104.39 86.8645C104.99 85.3503 104.254 83.6344 102.744 83.0318C101.235 82.4293 99.5246 83.1683 98.924 84.6824C98.3233 86.1966 99.06 87.9125 100.569 88.5151C102.079 89.1177 103.789 88.3787 104.39 86.8645Z" fill="#2158D6"/>
<path d="M119.037 114.715C118.788 115.069 118.439 115.341 118.036 115.496C117.633 115.651 117.192 115.683 116.771 115.587C116.35 115.491 115.966 115.273 115.669 114.958C115.371 114.644 115.173 114.248 115.1 113.821C115.027 113.394 115.081 112.955 115.257 112.558C115.432 112.162 115.721 111.828 116.086 111.596C116.452 111.364 116.877 111.247 117.309 111.258C117.741 111.269 118.16 111.408 118.513 111.658C118.748 111.824 118.947 112.035 119.101 112.278C119.254 112.522 119.358 112.793 119.407 113.077C119.456 113.361 119.448 113.652 119.385 113.933C119.321 114.214 119.203 114.48 119.037 114.715Z" fill="#3F3D56"/>
<path d="M117.042 109.149C116.899 109.596 116.9 110.076 117.043 110.522C117.187 110.968 117.467 111.357 117.843 111.635C118.142 111.841 118.484 111.975 118.842 112.024C119.201 112.074 119.567 112.039 119.909 111.922C122.371 111.254 121.924 106.683 127.633 105.585C133.342 104.487 137.973 98.6504 132.335 94.0532C128.032 90.5439 124.196 92.0516 122.432 93.4495L121.174 95.2348L123.472 98.7344C123.472 98.7344 127.285 95.8998 128.943 97.7852C130.6 99.6706 126.394 101.659 124.244 102.021C119.52 102.828 117.65 107.196 117.042 109.149Z" fill="#3F3D56"/>
<path d="M118.638 106.88C118.495 107.327 118.496 107.807 118.639 108.254C118.783 108.7 119.063 109.09 119.44 109.369C119.913 109.711 120.608 109.872 121.528 109.621C123.99 108.952 122.494 105.498 128.219 104.404C133.944 103.309 139.234 96.8652 133.596 92.2679C127.958 87.6707 122.436 93.4495 122.436 93.4495L124.733 96.9459C124.733 96.9459 128.547 94.1114 130.204 96C131.862 97.8886 127.655 99.8741 125.506 100.236C120.778 101.043 119.247 104.93 118.638 106.88Z" fill="#2158D6"/>
<path d="M119.879 113.51C120.563 112.51 120.31 111.144 119.313 110.458C118.317 109.772 116.955 110.026 116.271 111.026C115.587 112.025 115.84 113.392 116.837 114.078C117.833 114.764 119.195 114.51 119.879 113.51Z" fill="#2158D6"/>
<path d="M61.4173 173.027C61.3765 173.027 61.3365 173.015 61.3015 172.994C61.2742 172.979 61.2502 172.959 61.2311 172.934C61.212 172.91 61.198 172.881 61.1902 172.851C61.1824 172.821 61.1808 172.789 61.1855 172.758C61.1903 172.728 61.2013 172.698 61.2178 172.671C63.6564 168.197 65.6453 163.491 67.1552 158.621C69.543 151.019 71.7957 139.671 68.9573 128.778C63.4866 107.81 62.2186 94.9346 62.1993 94.8055C62.194 94.7443 62.213 94.6834 62.2522 94.6363C62.2913 94.5891 62.3476 94.5594 62.4085 94.5536C62.4686 94.5483 62.5285 94.567 62.5749 94.6057C62.6213 94.6444 62.6506 94.7 62.6563 94.7603C62.6563 94.8894 63.9435 107.732 69.395 128.659C72.2623 139.661 69.9936 151.106 67.5832 158.77C66.0617 163.666 64.061 168.4 61.6104 172.901C61.592 172.937 61.5645 172.967 61.5306 172.989C61.4967 173.012 61.4577 173.024 61.4173 173.027Z" fill="white"/>
</g>
<defs>
<linearGradient id="paint0_linear_108_172" x1="80.8224" y1="143.932" x2="84.668" y2="143.932" gradientUnits="userSpaceOnUse">
<stop stop-color="#ECC4D7"/>
<stop offset="0.42" stop-color="#EFD4D1"/>
<stop offset="1" stop-color="#F2EAC9"/>
</linearGradient>
<linearGradient id="paint1_linear_108_172" x1="58.093" y1="125.391" x2="131.567" y2="100.119" gradientUnits="userSpaceOnUse">
<stop stop-color="white" stop-opacity="0"/>
<stop offset="0.99" stop-color="white"/>
</linearGradient>
<linearGradient id="paint2_linear_108_172" x1="77.5078" y1="106.631" x2="74.9125" y2="113.218" gradientUnits="userSpaceOnUse">
<stop stop-color="#ECC4D7"/>
<stop offset="0.42" stop-color="#EFD4D1"/>
<stop offset="1" stop-color="#F2EAC9"/>
</linearGradient>
<linearGradient id="paint3_linear_108_172" x1="71.033" y1="106.311" x2="79.9825" y2="106.311" gradientUnits="userSpaceOnUse">
<stop stop-color="#ECC4D7"/>
<stop offset="0.42" stop-color="#EFD4D1"/>
<stop offset="1" stop-color="#F2EAC9"/>
</linearGradient>
<linearGradient id="paint4_linear_108_172" x1="60.6709" y1="95.1897" x2="65.1054" y2="95.1897" gradientUnits="userSpaceOnUse">
<stop stop-color="#ECC4D7"/>
<stop offset="0.42" stop-color="#EFD4D1"/>
<stop offset="1" stop-color="#F2EAC9"/>
</linearGradient>
<linearGradient id="paint5_linear_108_172" x1="85.4823" y1="130.954" x2="66.4109" y2="138.631" gradientUnits="userSpaceOnUse">
<stop stop-opacity="0"/>
<stop offset="1"/>
</linearGradient>
<clipPath id="clip0_108_172">
<rect width="136" height="192" fill="white"/>
</clipPath>
</defs>
</svg>
